<?xml version="1.0" encoding="UTF-8"?>
<svg width="107px" height="31px" viewBox="0 0 107 31" version="1.1" xmlns="http://www.w3.org/2000/svg" xmlns:xlink="http://www.w3.org/1999/xlink">
    <!-- Generator: Sketch 52.3 (67297) - http://www.bohemiancoding.com/sketch -->
    <title>Instagram Logo</title>
    <desc>Created with Sketch.</desc>
    <g id="Page-1" stroke="none" stroke-width="1" fill="none" fill-rule="evenodd">
        <g id="feeds" transform="translate(-668.000000, -15.000000)" fill="#1B1B1B">
            <g id="top-bar" transform="translate(1.000000, 1.000000)">
                <g id="Instagram-Logo" transform="translate(667.000000, 14.000000)">
                    <path d="M5.49872101,0.19260355 C3.31196471,1.12700592 0.907971429,3.76347337 0.148721008,7.07515385 C-0.812840336,11.2700592 3.1886,13.044213 3.51679328,12.463284 C3.90307227,11.7798166 2.79980336,11.5486923 2.57267563,9.37208876 C2.27918992,6.56081065 3.56049244,3.41953846 5.17322521,2.04123077 C5.47282521,1.78515976 5.45861849,2.14156805 5.45861849,2.80082249 C5.45861849,3.97973964 5.39477815,14.5628462 5.39477815,16.7715503 C5.39477815,19.7602071 5.27375126,20.7039645 5.05633445,21.6365325 C4.83622017,22.581574 4.48213109,23.2201006 4.7502605,23.4660828 C5.05004034,23.7412308 6.3299042,23.0867456 7.07081176,22.0320118 C7.95918151,20.7670651 8.27011092,19.2478817 8.32603866,17.5980947 C8.39347563,15.6093254 8.39059832,12.4535621 8.39347563,10.6535444 C8.39599328,9.0026568 8.42063025,4.16849112 8.36506218,1.2623787 C8.35139496,0.54956213 6.41334622,-0.198289941 5.49872101,0.19260355" id="Fill-1"></path>
                    <path d="M83.1503294,14.1792899 C83.0798353,15.7329586 82.7426504,16.9474615 82.3241815,17.8040888 C81.5140387,19.462497 79.8329697,19.9773905 79.1192168,17.5935089 C78.7302403,16.2940769 78.7120773,14.1237101 78.991716,12.3103018 C79.2763899,10.4629586 80.0712471,9.06777515 81.387437,9.19360947 C82.6856437,9.31797633 83.2932958,11.0242604 83.1503294,14.1792899 L83.1503294,14.1792899 Z M61.2644235,23.8190059 C61.2468,26.4006272 60.8484723,28.6641775 59.9942706,29.3215976 C58.7827429,30.2537988 57.1543647,29.5545562 57.4915496,27.6707101 C57.7898908,26.0036805 59.2008521,24.3012485 61.2678403,22.2211302 C61.2678403,22.2211302 61.2721563,22.6954852 61.2644235,23.8190059 L61.2644235,23.8190059 Z M60.9335328,14.1640651 C60.859442,15.5792426 60.4997782,17.0008402 60.1073849,17.8040888 C59.2974218,19.462497 57.6041244,19.9808757 56.9024202,17.5935089 C56.4226286,15.9622485 56.5375412,13.8511302 56.7749193,12.5208817 C57.0829714,10.7949704 57.8296336,9.1937929 59.1706403,9.1937929 C60.4744218,9.1937929 61.117321,10.6528107 60.9335328,14.1640651 L60.9335328,14.1640651 Z M48.2552017,14.1426036 C48.175716,15.6412426 47.8890639,16.8940828 47.4290538,17.8040888 C46.5967916,19.4511243 44.9502504,19.973355 44.2240891,17.5935089 C43.7005983,15.8773195 43.8788118,13.5374615 44.0965882,12.273432 C44.4197462,10.3976568 45.2289899,9.06777515 46.4923092,9.1937929 C47.7899765,9.32311243 48.4208269,11.0242604 48.2552017,14.1426036 L48.2552017,14.1426036 Z M106.356921,15.8930947 C106.039697,15.8930947 105.894933,16.2267574 105.775165,16.7880592 C105.359753,18.7403254 104.923121,19.180929 104.360067,19.180929 C103.731015,19.180929 103.165803,18.214426 103.020499,16.2794024 C102.906306,14.7578343 102.924649,11.9568284 103.070672,9.17049704 C103.100524,8.59800592 102.945689,8.03156805 101.440316,7.47375148 C100.792561,7.23382249 99.8509613,6.88053254 99.3821395,8.03486982 C98.0574975,11.2961065 97.5392218,13.8852485 97.4172958,14.9368639 C97.4110017,14.9913432 97.3455429,15.0025325 97.3340336,14.8752308 C97.2563462,14.0329112 97.0826286,12.5019882 97.0610487,9.28587574 C97.0569126,8.65835503 96.9265345,8.12420118 96.2474891,7.68689941 C95.8069008,7.40313018 94.4689513,6.90126036 93.9871815,7.49833136 C93.5697916,7.98662722 93.0864034,9.30073373 92.5841328,10.8584379 C92.1759143,12.1244852 91.8916,12.980929 91.8916,12.980929 C91.8916,12.980929 91.896995,9.56487574 91.9018504,8.26911243 C91.9040084,7.78026627 91.5752756,7.6173787 91.4761882,7.58784615 C91.0300252,7.45595858 90.1510067,7.23528994 89.7778555,7.23528994 C89.3174857,7.23528994 89.2047311,7.49759763 89.2047311,7.88005325 C89.2047311,7.93031361 89.132079,12.3776213 89.132079,15.4875266 C89.132079,15.622716 89.1322588,15.7700118 89.1327983,15.9266627 C88.8781563,17.3559645 88.0523681,19.2963077 87.1542874,19.2963077 C86.2551277,19.2963077 85.8309042,18.4851716 85.8309042,14.777645 C85.8309042,12.6149822 85.8945647,11.6743432 85.9258555,10.1100355 C85.9440185,9.20901775 85.9790857,8.51711243 85.9771076,8.36009467 C85.9704538,7.8785858 85.1541966,7.63590533 84.7743916,7.5462071 C84.3927882,7.45595858 84.0611782,7.42073964 83.8022202,7.43578107 C83.4357227,7.45705917 83.176405,7.70212426 83.176405,8.03945562 C83.176405,8.22050296 83.1783832,8.56425444 83.1783832,8.56425444 C82.7063244,7.80759763 81.9470739,7.2809645 81.4419261,7.12834911 C80.0813176,6.71617751 78.6615445,7.08157396 77.5906454,8.60992899 C76.7395008,9.82443195 76.2264403,11.1999882 76.0244891,13.176284 C75.8768471,14.6211775 75.925042,16.0862485 76.1874168,17.3253314 C75.8703731,18.7234497 75.2817832,19.2963077 74.6372655,19.2963077 C73.7016,19.2963077 73.0232739,17.7386036 73.1020403,15.044355 C73.1540118,13.2724024 73.5016269,12.0287337 73.8816118,10.2296331 C74.0436403,9.46270414 73.9120034,9.0611716 73.5818319,8.67633136 C73.278995,8.32340828 72.633758,8.14309467 71.7061849,8.36486391 C71.0454824,8.52298225 70.1008252,8.69302367 69.2365529,8.82362722 C69.2365529,8.82362722 69.2887042,8.61139645 69.3315042,8.23719527 C69.5562941,6.27484024 67.4657479,6.43405917 66.7987513,7.06084615 C66.4006034,7.43504734 66.1295966,7.87638462 66.0267328,8.66991124 C65.8636252,9.9291716 66.8705042,10.5231243 66.8705042,10.5231243 C66.5401529,12.065787 65.7303697,14.0806036 64.8943311,15.5374201 C64.4465496,16.3179231 64.1039697,16.896284 63.661763,17.5111479 C63.6601445,17.2822249 63.6588857,17.0531183 63.6581664,16.8252959 C63.6480958,13.5824024 63.6903563,11.0303136 63.7090588,10.1102189 C63.7272218,9.20920118 63.7626487,8.53563905 63.7606706,8.3786213 C63.7556353,8.02661538 63.5540437,7.89344379 63.1346756,7.72505325 C62.7638622,7.57610651 62.3254319,7.47301775 61.870637,7.43706509 C61.2966134,7.39157396 60.9507966,7.70194083 60.9597882,8.0691716 C60.9615866,8.13850888 60.9615866,8.56425444 60.9615866,8.56425444 C60.4895277,7.80759763 59.7302773,7.2809645 59.2251294,7.12834911 C57.864521,6.71636095 56.4447479,7.08157396 55.3738487,8.60992899 C54.522884,9.82443195 53.9655849,11.5286982 53.8076924,13.1612426 C53.6605899,14.6828107 53.6877445,15.9756391 53.8882571,17.0650414 C53.6719193,18.1557278 53.0498807,19.2963077 52.346558,19.2963077 C51.4473983,19.2963077 50.9357765,18.4851716 50.9357765,14.777645 C50.9357765,12.6149822 50.999437,11.6743432 51.0307277,10.1102189 C51.0488908,9.20920118 51.083958,8.51711243 51.0819798,8.36027811 C51.0753261,7.87876923 50.2590689,7.63608876 49.8792639,7.5462071 C49.4818353,7.45247337 49.138716,7.41798817 48.8752622,7.43798225 C48.5276471,7.46421302 48.2832555,7.78173373 48.2832555,8.01854438 L48.2832555,8.56425444 C47.8111966,7.80759763 47.0519462,7.2809645 46.5467983,7.12834911 C45.1861899,6.71636095 43.7743294,7.08744379 42.6955176,8.60992899 C41.9920151,9.60266272 41.4224874,10.7032544 41.1293613,13.1395976 C41.0446605,13.8436095 41.0072555,14.5030473 41.0121109,15.1191953 C40.7315731,16.8693195 39.4925311,18.8861538 38.4789983,18.8861538 C37.8859126,18.8861538 37.3210605,17.7127396 37.3210605,15.2120118 C37.3210605,11.8808876 37.5231916,7.13825444 37.5573597,6.68114201 C37.5573597,6.68114201 38.8379429,6.65894675 39.0859311,6.65601183 C39.7246941,6.64885799 40.3032134,6.66426627 41.1539983,6.61987574 C41.5807395,6.59768047 41.9918353,5.03557396 41.5514269,4.84223669 C41.3518134,4.75473964 39.9410319,4.67806509 39.3817546,4.66595858 C38.9114941,4.65513609 37.6023176,4.55626627 37.6023176,4.55626627 C37.6023176,4.55626627 37.7197479,1.4082071 37.7470824,1.07564497 C37.7702807,0.79847929 37.4187092,0.655769231 37.2171176,0.569189349 C36.7268958,0.357692308 36.2882857,0.25643787 35.7683916,0.147112426 C35.0501429,-0.00403550296 34.7242874,0.143810651 34.6606269,0.762159763 C34.5647765,1.70059763 34.5151429,4.44932544 34.5151429,4.44932544 C33.9880555,4.44932544 32.1875782,4.34421893 31.6603109,4.34421893 C31.1704487,4.34421893 30.6417429,6.49312426 31.3189899,6.51953846 C32.0982017,6.55035503 33.4561126,6.57713609 34.3563513,6.60465089 C34.3563513,6.60465089 34.3162487,11.4256095 34.3162487,12.9141598 C34.3162487,13.0724615 34.3169681,13.2248935 34.3178672,13.3729231 C33.8224303,16.0068225 32.0773412,17.4297041 32.0773412,17.4297041 C32.4521109,15.6871006 31.6865664,14.378497 30.3076151,13.2707515 C29.7995899,12.8626154 28.7966672,12.0898166 27.674516,11.2429112 C27.674516,11.2429112 28.3244286,10.5897101 28.9007899,9.27505325 C29.3091882,8.34376923 29.3268118,7.27839645 28.3244286,7.04342012 C26.6681765,6.65491124 25.3025328,7.89564497 24.8952134,9.2202071 C24.5796084,10.2465089 24.7479311,11.0077515 25.3661933,11.7987101 C25.4113311,11.8564911 25.4602454,11.9155562 25.5107782,11.9749882 C25.1369076,12.71 24.6233076,13.6996154 24.1882941,14.4670947 C22.9809025,16.5978402 22.068795,18.283213 21.3794992,18.283213 C20.8284941,18.283213 20.8358672,16.5719763 20.8358672,14.9698817 C20.8358672,13.5888225 20.9358538,11.5123728 21.0156992,9.3625503 C21.0421345,8.65156805 20.6936202,8.2465503 20.1093462,7.87968639 C19.754358,7.65681657 18.9967261,7.21859763 18.5579361,7.21859763 C17.9011899,7.21859763 16.0063008,7.30976331 14.2158941,12.5924201 C13.990205,13.2582781 13.5469193,14.471497 13.5469193,14.471497 L13.5852235,8.11888166 C13.5852235,7.96993491 13.5073563,7.82594083 13.3293227,7.72743787 C13.0275647,7.56033136 12.2217378,7.21859763 11.5052874,7.21859763 C11.1639664,7.21859763 10.9934857,7.38056805 10.9934857,7.70340828 L10.931084,17.6421183 C10.931084,18.3974911 10.9503261,19.2783314 11.0235176,19.6635385 C11.0965294,20.0492959 11.214679,20.3631479 11.3608824,20.5498817 C11.5070857,20.7362485 11.6761277,20.8784083 11.9546874,20.9371065 C12.214005,20.9915858 13.6343176,21.1775858 13.7080487,20.6239882 C13.7965261,19.9605148 13.7999429,19.242929 14.5457059,16.5666568 C15.7067008,12.4 17.2201664,10.3670237 17.9319412,9.6450355 C18.0563849,9.51883432 18.1984521,9.51131361 18.1916185,9.71785799 C18.1612269,10.6313491 18.0544067,12.9141598 17.9824739,14.8532189 C17.7896941,20.0428757 18.7152891,21.0047929 20.0379529,21.0047929 C21.0498672,21.0047929 22.4762941,19.9792249 24.005405,17.3831124 C24.9586941,15.7652426 25.8842891,14.1789231 26.5493076,13.0355917 C27.0127345,13.4732604 27.5328084,13.9441302 28.0525227,14.447284 C29.2602739,15.6164793 29.6568034,16.7275266 29.3937092,17.7815266 C29.1924773,18.5873432 28.4346655,19.4177396 27.0859261,18.6106391 C26.6928134,18.3751124 26.5250303,18.1931479 26.1297597,17.9277219 C25.9173782,17.7851953 25.5931412,17.7424556 25.3987429,17.8919527 C24.8937748,18.2802781 24.6049647,18.7742604 24.4400588,19.3858225 C24.2796487,19.9808757 24.8639227,20.2954615 25.4695966,20.5706095 C25.9911092,20.8074201 27.1120017,21.0220355 27.8268336,21.046432 C30.6120706,21.1414497 32.8432454,19.6747278 34.3964538,15.8912604 C34.6744739,19.1589172 35.8577681,21.0077278 37.9136067,21.0077278 C39.2880622,21.0077278 40.6661143,19.1956036 41.2687311,17.4128284 C41.4417294,18.1395858 41.6978101,18.7715089 42.028521,19.3060296 C43.6126605,21.8661893 46.6858084,21.3151598 48.2294857,19.1411243 C48.7067597,18.4693964 48.7794118,18.228 48.7794118,18.228 C49.0045613,20.280787 50.6252067,20.9980059 51.5531395,20.9980059 C52.5923882,20.9980059 53.6654454,20.4968698 54.4175025,18.769858 C54.5056202,18.9573254 54.6018303,19.136355 54.7068521,19.3060296 C56.2909916,21.8661893 59.3641395,21.3151598 60.9078168,19.1411243 C60.9806487,19.0391361 61.0437697,18.9466864 61.0989782,18.8635917 L61.1442958,20.212 C61.1442958,20.212 60.2636588,21.0359763 59.723084,21.5415148 C57.3408504,23.7685621 55.5312017,25.457787 55.3981261,27.4249112 C55.2287244,29.9331598 57.2218017,30.8653609 58.7320303,30.9875266 C60.3328941,31.117213 61.7062706,30.2143609 62.5491429,28.9508817 C63.2909496,27.8387337 63.7764958,25.4451302 63.7408891,23.0810592 C63.7266824,22.1343669 63.7033042,20.9306864 63.6849613,19.640426 C64.5211798,18.6498935 65.4633193,17.397787 66.3308286,15.9325325 C67.276205,14.335574 68.2893782,12.1908876 68.8081933,10.5218402 C68.8081933,10.5218402 69.6884706,10.5295444 70.6279126,10.4668107 C70.9284118,10.4468166 71.0147311,10.5093669 70.959163,10.734071 C70.8920857,11.0055503 69.7722723,15.4112189 70.7942571,18.3461302 C71.4938034,20.3552604 73.0707496,21.0016746 74.0056958,21.0016746 C75.1001529,21.0016746 76.1471345,20.1586213 76.7082101,18.9066982 C76.7758269,19.0462899 76.8465008,19.1812959 76.9236487,19.3060296 C78.5077882,21.8661893 81.5701462,21.311858 83.1246134,19.1411243 C83.4754655,18.6513609 83.6745395,18.228 83.6745395,18.228 C84.0081277,20.3525089 85.6278739,21.0088284 86.5556269,21.0088284 C87.5220437,21.0088284 88.4391866,20.6047278 89.1833311,18.8087456 C89.214442,19.5995207 89.2633563,20.2461183 89.340684,20.4499112 C89.3878,20.574645 89.6624034,20.7311124 89.8621966,20.8066864 C90.7462504,21.1410828 91.6479277,20.9829645 91.981516,20.9141775 C92.2126,20.8664852 92.3927916,20.6773669 92.4174286,20.189071 C92.4821681,18.9068817 92.4424252,16.7526568 92.8234891,15.1514793 C93.4631513,12.464568 94.0598336,11.4223077 94.3428891,10.9063136 C94.501321,10.6172249 94.6800739,10.5695325 94.6865479,10.875497 C94.6998555,11.4945799 94.7300672,13.312574 94.9778756,15.7551538 C95.1598655,17.551503 95.4029983,18.6133905 95.5898437,18.9494379 C96.1230454,19.9104379 96.7815899,19.955929 97.3178487,19.955929 C97.6589899,19.955929 98.3723832,19.8598107 98.3085429,19.2482485 C98.2774319,18.9501716 98.331921,17.1079645 98.9625916,14.460858 C99.3744067,12.7321953 100.061005,11.1704556 100.308634,10.5992485 C100.399988,10.3886686 100.442429,10.5546746 100.44099,10.5869586 C100.388839,11.777432 100.271768,15.6713254 100.747244,17.8009704 C101.391761,20.6859882 103.256259,21.0088284 103.905992,21.0088284 C105.293035,21.0088284 106.427415,19.9326331 106.809558,17.1008107 C106.901632,16.4193609 106.765319,15.8930947 106.356921,15.8930947 L106.356921,15.8930947 Z" id="Fill-3"></path>
                </g>
            </g>
        </g>
    </g>
</svg>